<?xml version="1.0" encoding="utf-8"?>
<svg xmlns="http://www.w3.org/2000/svg" width="100" height="100" viewBox="0 0 100 100" fill="none">
<path d="M40.245 0.960848C49.9439 -0.968379 59.9975 0.0213749 69.1337 3.80557C78.27 7.58995 86.0791 13.9992 91.5732 22.2216C97.0672 30.444 99.9999 40.1109 99.9999 49.9999C99.9839 63.2558 94.7111 75.9644 85.3378 85.3378C75.9644 94.7112 63.2559 99.9839 49.9999 99.9999C40.111 99.9999 30.444 97.068 22.2216 91.5741C13.9992 86.0801 7.58998 78.2709 3.80558 69.1347C0.0212366 59.9985 -0.968311 49.945 0.960849 40.246C2.89011 30.5469 7.6518 21.6371 14.6444 14.6444C21.637 7.65193 30.5461 2.89016 40.245 0.960848ZM49.9999 1.22159C40.3495 1.2216 30.9154 4.08348 22.8915 9.44522C14.8678 14.807 8.61423 22.4277 4.92179 31.3437C1.22936 40.2596 0.263848 50.0703 2.14737 59.5351C4.03094 68.9998 8.67917 77.6935 15.5038 84.5165C22.3286 91.3396 31.0239 95.9859 40.4892 97.8671C49.9543 99.7482 59.7646 98.7804 68.6796 95.0858C77.5948 91.3911 85.2144 85.1355 90.5741 77.1103C95.9339 69.085 98.7933 59.6504 98.7909 49.9999C98.7749 37.0659 93.6292 24.666 84.4823 15.5214C75.3354 6.37671 62.934 1.23439 49.9999 1.22159ZM49.915 75.0185C50.079 75.0254 50.2358 75.0897 50.3573 75.2001C50.4789 75.3106 50.5575 75.4603 50.58 75.623C50.6043 75.9086 50.6043 76.1957 50.58 76.4814L50.6894 79.1298V84.2685C50.7015 84.994 50.5077 85.3203 50.1933 85.538H49.7343C49.4078 85.3203 49.2265 84.994 49.2265 84.2685V76.2763C49.2011 76.0513 49.2011 75.8235 49.2265 75.5985C49.2571 75.4374 49.3423 75.2921 49.4677 75.1864C49.5931 75.0808 49.751 75.0213 49.915 75.0185ZM29.5526 69.1298C29.6293 69.1299 29.7047 69.1508 29.7704 69.1903C29.9714 69.3488 30.1433 69.5412 30.2782 69.7587L30.3388 69.9394C30.312 69.9668 30.2912 70 30.2782 70.036C30.1765 70.25 30.0465 70.4497 29.8915 70.6288C28.0415 72.503 26.2519 74.305 24.414 76.1308C24.3224 76.2393 24.2095 76.3281 24.0829 76.3925C23.9562 76.4569 23.8174 76.4957 23.6757 76.5058C23.59 76.5041 23.5057 76.4836 23.4286 76.4462C23.3514 76.4086 23.2828 76.3545 23.2284 76.288C22.7932 75.7923 23.1321 75.3208 23.3739 75.079L27.4853 70.9071L28.912 69.4921C29.0694 69.2916 29.2997 69.1615 29.5526 69.1298ZM70.2177 69.1298C70.4301 69.2245 70.6295 69.346 70.8105 69.4921C72.6725 71.3179 74.5225 73.1681 76.4208 74.873C76.5175 74.9368 76.5992 75.0214 76.6601 75.12C76.721 75.2186 76.7595 75.3292 76.7733 75.4442C76.7872 75.5593 76.776 75.6759 76.7401 75.786C76.7043 75.8961 76.645 75.9971 76.5663 76.0819C76.4496 76.2076 76.2899 76.2853 76.1191 76.2997C75.8368 76.2654 75.5749 76.1334 75.3808 75.9257L70.955 71.4999L69.8554 70.3876C69.3719 69.9041 69.5525 69.6618 69.5526 69.5771C69.7103 69.3693 69.8981 69.1861 70.1093 69.0331H70.1816L70.2177 69.1298ZM50.8105 32.2733C54.48 32.415 58.0918 33.2346 61.4628 34.6913C69.0698 38.0389 75.6387 43.368 80.4833 50.121C81.0516 50.8828 81.0516 50.955 80.4833 51.7167C76.2116 57.6218 70.6551 62.4801 64.2323 65.9247C59.5451 68.3875 54.3146 69.6351 49.0204 69.5526C45.1001 69.4324 41.2436 68.5279 37.6786 66.8925C30.2911 63.5045 23.9142 58.2489 19.1776 51.6444C18.6941 50.9917 18.6942 50.8587 19.1776 50.206C23.4701 44.2581 29.0613 39.3662 35.5263 35.9013C39.9256 33.5508 44.8305 32.3055 49.8183 32.2733H50.8105ZM50.8583 33.7489C45.0731 33.5874 39.3662 35.117 34.4374 38.1503C29.3034 41.2256 24.7916 45.2366 21.1366 49.9755C20.895 50.2276 20.7597 50.5638 20.7597 50.913C20.7597 51.2622 20.895 51.5984 21.1366 51.8505C25.3672 57.3613 30.7808 61.8527 36.9775 64.9941C40.8433 66.9425 45.0923 68.0121 49.4198 68.1259C55.0086 68.0997 60.4864 66.5617 65.2724 63.6757C70.4028 60.6153 74.9143 56.6206 78.5732 51.8983C78.8363 51.6522 78.9912 51.3121 79.0048 50.9521C79.0184 50.592 78.8893 50.2408 78.6454 49.9755C74.3584 44.4025 68.8587 39.8784 62.5634 36.747C58.9113 34.9484 54.9253 33.9279 50.8583 33.7489ZM49.0937 39.2265C50.7107 39.117 52.333 39.3472 53.8554 39.9032C55.3778 40.4593 56.7667 41.329 57.9325 42.455C59.6034 44.0134 60.7832 46.0257 61.3261 48.245C61.869 50.4645 61.7511 52.7944 60.9882 54.9482C60.2253 57.102 58.8501 58.9861 57.0312 60.3691C55.2123 61.7519 53.0293 62.5741 50.7499 62.7333C47.7649 62.9635 44.8062 62.0312 42.4921 60.1317C40.178 58.2323 38.687 55.5116 38.331 52.539C38.2163 51.4297 38.2163 50.3114 38.331 49.2021V49.0448C38.3315 48.9388 38.3539 48.8338 38.3954 48.7362C38.4369 48.6387 38.4972 48.5503 38.5732 48.4765C38.7027 48.371 38.8661 48.3153 39.0331 48.3192H39.1415C39.3171 48.3294 39.4824 48.4075 39.6015 48.537C39.7264 48.7301 39.7691 48.9653 39.7216 49.1903C39.3611 51.3777 39.6959 53.6236 40.6776 55.6112C41.5554 57.3708 42.9182 58.8425 44.6054 59.8524C46.2928 60.8624 48.2343 61.3684 50.2001 61.3105C52.1659 61.2525 54.0741 60.633 55.6991 59.5253C57.3242 58.4176 58.5985 56.8681 59.371 55.0595C60.1435 53.2509 60.3818 51.2591 60.0585 49.3192C59.7352 47.3795 58.8639 45.5725 57.5468 44.1122C56.2295 42.6519 54.5213 41.5988 52.6249 41.078C50.7285 40.5572 48.722 40.5901 46.8437 41.1728H46.7108C46.5416 41.2211 46.3599 41.3183 46.1786 41.3183C46.0939 41.3507 46.0036 41.3654 45.913 41.3622C45.8222 41.3591 45.7327 41.3381 45.6503 41.2997C45.5681 41.2614 45.4943 41.2069 45.4335 41.1396C45.3727 41.0721 45.3265 40.9929 45.2968 40.9071C45.2576 40.8155 45.2373 40.7168 45.2372 40.6171C45.2372 40.5173 45.2575 40.4178 45.2968 40.3261C45.3466 40.2444 45.4131 40.1741 45.4921 40.12C45.5713 40.0659 45.6613 40.0295 45.7558 40.0126C46.838 39.6356 47.957 39.3721 49.0937 39.2265ZM49.8788 46.0585C51.1615 46.0585 52.3917 46.5677 53.2987 47.4745C54.2057 48.3815 54.7156 49.6118 54.7157 50.8944C54.7157 51.5317 54.5902 52.1635 54.3456 52.7519C54.1011 53.34 53.7424 53.8738 53.2909 54.3232C52.8392 54.7726 52.3024 55.1284 51.7128 55.37C51.1232 55.6116 50.4915 55.7345 49.8544 55.7314C48.5924 55.7164 47.3859 55.2093 46.4931 54.3173C45.8181 53.6431 45.358 52.7839 45.1698 51.8485C44.9817 50.9132 45.0746 49.9432 45.4364 49.0605C45.7983 48.1777 46.4125 47.4208 47.203 46.8866C47.9935 46.3525 48.9248 46.0649 49.8788 46.0585ZM49.8788 47.4853C49.0081 47.5372 48.1899 47.9197 47.5917 48.5546C46.9936 49.1895 46.6601 50.029 46.6601 50.9013C46.6602 51.7735 46.9935 52.6131 47.5917 53.248C48.1899 53.8828 49.0081 54.2654 49.8788 54.3173C50.3284 54.3189 50.7741 54.2308 51.1894 54.0585C51.6045 53.8862 51.9815 53.6328 52.2978 53.3134H52.2616C52.5799 52.9969 52.8316 52.6193 53.0019 52.204C53.172 51.7888 53.2574 51.3432 53.2528 50.8944C53.263 49.9981 52.92 49.1334 52.2978 48.4882C51.6543 47.8496 50.7853 47.4899 49.8788 47.4853ZM41.5839 43.3251C41.7681 43.3368 41.9418 43.4161 42.0712 43.5478C42.2006 43.6794 42.2765 43.8546 42.2851 44.039C42.287 44.1306 42.269 44.222 42.2314 44.3056C42.1937 44.3892 42.1372 44.4631 42.0673 44.5224C42.0083 44.5894 41.9364 44.6441 41.8554 44.6816C41.7742 44.719 41.6851 44.7388 41.5956 44.7401C41.4115 44.7315 41.2369 44.6554 41.1054 44.5263C40.9738 44.3969 40.8945 44.2231 40.8827 44.039C40.8873 43.8515 40.9656 43.6731 41.1005 43.5429C41.2291 43.413 41.4014 43.3352 41.5839 43.3251ZM23.6884 26.8202C23.9771 26.8508 24.2422 26.9937 24.4257 27.2187L28.5487 31.33L29.9276 32.7089C30.4352 33.2166 30.2902 33.4706 30.2177 33.5673C30.065 33.7726 29.8762 33.9484 29.661 34.0868H29.4804C29.2688 33.9857 29.0696 33.8597 28.8876 33.7118C27.0376 31.8981 25.2111 30.0609 23.3974 28.2108C23.1786 28.029 23.0399 27.7683 23.0107 27.4853C23.0129 27.3978 23.0337 27.3114 23.0712 27.2323C23.1087 27.1532 23.1622 27.0825 23.2284 27.0253C23.2875 26.9624 23.3587 26.9121 23.4374 26.8769C23.5163 26.8416 23.602 26.8224 23.6884 26.8202ZM76.1308 26.8437C76.223 26.8482 76.3126 26.8756 76.3925 26.9218C76.4724 26.9681 76.5408 27.0326 76.5907 27.1103C76.6541 27.2249 76.6874 27.3542 76.6874 27.4853C76.6874 27.6161 76.654 27.7448 76.5907 27.8593C76.5281 27.9631 76.455 28.0611 76.373 28.1503L75.5868 28.9364C73.9666 30.5929 72.3701 32.1884 70.7499 33.7724C70.5993 33.9047 70.4277 34.011 70.2421 34.0868H70.1816C70.0627 34.0637 69.9493 34.0168 69.8495 33.9482C69.7499 33.8796 69.6656 33.791 69.6015 33.6884C69.5451 33.5933 69.5156 33.4845 69.5155 33.3739C69.5155 33.2633 69.5451 33.1546 69.6015 33.0595C69.7018 32.9018 69.8194 32.7556 69.9521 32.6239L70.8954 31.6806C72.3584 30.2056 73.8214 28.7307 75.3085 27.2919C75.5283 27.0595 75.8163 26.902 76.1308 26.8437ZM49.8915 16.3241C49.99 16.3286 50.087 16.3534 50.1757 16.3964C50.2643 16.4395 50.3437 16.5005 50.4081 16.5751C50.4724 16.6497 50.5211 16.737 50.5507 16.831C50.5654 16.8778 50.575 16.9259 50.58 16.9745V25.9013C50.5799 26.4572 50.3507 26.7597 49.9276 26.8202C49.7482 26.8346 49.5699 26.7781 49.4316 26.663C49.3541 26.598 49.2927 26.5158 49.2509 26.4237C49.2091 26.3317 49.1884 26.2318 49.1903 26.1308V17.0009C49.1877 16.9104 49.2047 16.8206 49.2401 16.7372C49.2756 16.6537 49.3283 16.5785 49.3954 16.5175C49.4607 16.4534 49.5387 16.4033 49.6239 16.37C49.709 16.3369 49.8002 16.3212 49.8915 16.3241Z" fill="#E5CA7A"/>
</svg>