<?xml version="1.0" encoding="utf-8"?>
<svg xmlns="http://www.w3.org/2000/svg" width="100" height="100" viewBox="0 0 100 100" fill="none">
<path d="M50 0C77.6027 9.83936e-05 100 22.3973 100 50C100.121 77.4817 77.6027 99.9999 50 100C22.3972 100 0 77.6028 0 50C3.08465e-05 22.3972 22.3972 0 50 0ZM50 1.08984C23.1236 1.08984 1.21099 23.0025 1.21094 49.8789C1.21094 76.7553 23.1236 98.668 50 98.668C76.8763 98.6679 98.9102 76.8763 98.9102 49.8789C98.9101 23.0026 76.9974 1.08994 50 1.08984ZM49.6367 21.1865C50.2419 21.1865 50.968 21.3076 51.5732 21.3076C55.2052 21.5497 58.7166 22.3969 61.9854 23.9707C62.4695 24.2128 62.5907 24.4552 62.5908 24.6973C62.5908 24.9393 62.4697 25.1816 62.3486 25.3027C62.2276 25.4238 61.9853 25.4238 61.7432 25.4238C61.6221 25.3028 61.5009 25.3027 61.2588 25.1816C58.2322 23.85 54.963 23.0029 51.3311 22.7607C51.0888 22.7607 50.6053 22.761 50.3633 23.0029C50.0003 23.2449 50 23.7284 50 23.9707V26.3926H49.1523V22.8818H48.668C43.7043 22.2766 33.8987 26.2716 30.5088 30.3877L30.1455 30.751L32.6875 33.293L32.082 33.8984L29.54 31.3564L28.9346 31.9609L28.5713 32.3242C25.6658 35.835 23.4871 39.8304 22.3975 44.3096C22.0343 45.5201 21.6709 47.0943 21.5498 48.668C21.5498 49.3944 21.4288 49.879 21.792 50.2422C22.1551 50.4841 22.6392 50.4844 23.3652 50.4844H25.4238V51.4531H22.7598C22.3967 51.4531 22.034 51.4533 21.792 51.6953C21.55 51.9374 21.5498 52.3 21.5498 52.6631L21.9131 54.3584C22.6395 60.1695 25.3027 65.7383 29.2979 69.9756L29.6611 70.3389L32.2031 67.7969L32.8086 68.5234L30.5088 70.8232L30.751 71.1865C33.4147 74.9394 43.2202 79.0556 48.9102 78.8135H49.3945V75.3027H50.6055V78.9346H51.2109C53.7532 78.8135 56.4168 78.3288 59.0801 77.4814C62.954 76.2708 66.9489 73.8498 69.3701 71.3076L69.7334 70.9443L67.0703 68.5234L67.7959 67.7969L70.46 70.46L70.8232 70.0967C72.0338 68.8861 73.1233 67.4331 74.0918 65.8594C76.513 61.9853 77.8448 57.869 78.208 53.3896V53.1475C78.329 52.4214 78.3288 52.0584 78.0869 51.6953C77.8448 51.4532 77.3602 51.4531 76.6338 51.4531H74.6973V50.7266H78.3291V50.1211C78.3291 48.0631 77.9657 46.1263 77.4814 44.0684C76.3919 40.0732 74.6967 36.5618 72.1543 33.4141L71.4287 32.5664L71.0654 33.8984C70.9444 34.0195 70.9443 34.2617 70.9443 34.3828C70.8233 34.746 70.8232 35.1095 70.8232 35.4727C70.8232 35.9568 70.7022 36.5618 70.7021 37.0459C70.7021 37.5301 70.3388 37.7724 69.9756 37.7725C69.4913 37.7725 69.249 37.4091 69.249 36.9248C69.2491 36.4408 69.3701 35.9567 69.3701 35.4727C69.4911 35.2306 69.4912 34.9882 69.4912 34.7461L69.8545 29.6611H70.5811C72.1548 29.7822 73.729 29.9034 75.3027 30.0244L76.9971 30.1455H77.1182C77.4814 30.1455 77.7236 30.5089 77.7236 30.8721C77.7235 31.2352 77.4813 31.5986 77.1182 31.5986H75.9082C75.424 31.5986 74.9393 31.4776 74.334 31.4775L72.5176 31.3564L73.2441 32.5664C73.3652 32.8084 73.3654 32.9298 73.4863 33.0508C76.2708 36.8038 78.2082 41.1622 79.0557 45.6416C80.1452 51.5738 79.4184 57.264 77.1182 62.5908C73.002 71.7917 65.9801 77.6031 56.1738 79.9033C49.9997 81.356 43.8256 80.7503 37.8936 78.0869C31.4772 75.3024 26.5129 70.5814 23.2441 64.0439C21.6703 60.8963 20.7021 57.506 20.3389 53.874C18.8862 39.9516 27.6029 26.7558 40.9199 22.5186C43.8255 21.6711 46.7312 21.1865 49.6367 21.1865ZM59.2012 43.9473C59.443 43.9475 59.6843 44.1888 59.6846 44.4307V49.6367C59.6846 49.6367 60.7748 48.4258 62.5908 48.4258C64.8908 48.4259 65.8593 49.8789 65.8594 52.542V57.3848C65.8594 57.6269 65.6171 57.8691 65.375 57.8691H64.7695C64.5275 57.869 64.2852 57.6268 64.2852 57.3848V52.542C64.2851 50.8474 63.8011 49.7579 62.3486 49.7578C60.6537 49.7578 59.5635 51.0898 59.5635 51.0898V57.3848C59.5635 57.6268 59.3221 57.8689 59.0801 57.8691H58.4746C58.2325 57.8691 57.9902 57.6269 57.9902 57.3848L58.1113 44.4307C58.1116 44.1887 58.3537 43.9473 58.5957 43.9473H59.2012ZM52.9053 52.4209H54.7217V53.7529H52.9053V57.2637H51.2109V53.7529H45.2783V52.6631L50.9688 44.4307H52.9053V52.4209ZM39.709 44.0684C42.4935 44.0684 43.7041 46.0053 43.7041 47.8213C43.7039 50.2424 42.0089 52.1795 39.2246 54.7217L38.1357 55.6904H43.9463V57.1426H35.7139V56.1748L37.0459 54.8428C40.3144 51.6953 41.7674 50.0003 41.8887 48.0635C41.8887 46.7318 41.2827 45.5205 39.3457 45.5205C38.1352 45.5206 37.1668 46.1261 36.5615 46.6104L36.0771 45.3994C36.9245 44.6731 38.2563 44.0684 39.709 44.0684ZM51.2109 45.8838C50.8477 46.6102 50.4843 47.216 50.1211 47.8213L46.9736 52.1797H51.2109V45.8838Z" fill="#E5CA7A"/>
</svg>