<?xml version="1.0" encoding="utf-8"?>
<svg xmlns="http://www.w3.org/2000/svg" width="100" height="100" viewBox="0 0 100 100" fill="none">
<path d="M50 0C77.5672 0 100 22.4328 100 50C100 77.5672 77.5672 100 50 100C22.4328 100 0 77.5672 0 50C9.99166e-07 22.4328 22.4328 9.99038e-07 50 0ZM50 1.22266C23.1051 1.22266 1.22266 23.1051 1.22266 50C1.22266 76.8949 23.1051 98.7773 50 98.7773C76.8949 98.7773 98.7773 76.8949 98.7773 50C98.7773 23.1051 76.8949 1.22266 50 1.22266ZM33.166 11.7969C39.7307 11.7969 45.3055 16.0145 47.3838 21.8701H64.2295C64.4128 21.8701 64.5843 21.9437 64.6943 22.0781C64.8166 22.2126 64.8653 22.3962 64.8408 22.5674L64.8291 22.5547C64.8169 22.6525 63.5091 32.0901 69.0469 43.667C74.8415 55.8063 72.0047 65.0365 64.7432 77.8115C64.6454 77.9949 64.4378 78.1171 64.2178 78.1172H35.7578C35.5378 78.1171 35.3424 78.0071 35.2324 77.8115C29.2912 67.3594 26.3079 59.2911 28.5938 50.0615C28.5815 49.9882 28.5937 49.9142 28.6182 49.8408C28.6426 49.7919 28.6679 49.7554 28.6924 49.7188C29.2058 47.7628 29.9263 45.7574 30.9287 43.667C31.0997 43.3249 31.2469 43.032 31.3936 42.751C31.5403 42.482 31.6751 42.2001 31.8096 41.9189C24.1201 41.2343 18.0684 34.7674 18.0684 26.8945C18.0685 18.5696 24.8411 11.797 33.166 11.7969ZM29.6943 50.8682C27.7751 59.45 30.5749 67.1029 36.125 76.9072H49.3398V63.9482C43.3496 56.369 32.4939 51.9195 29.6943 50.8682ZM70.3057 50.8193C67.7506 51.7607 56.6867 56.1978 50.5742 63.875V76.9072H63.8877C69.4378 67.0907 72.2493 59.4256 70.3057 50.8193ZM31.8096 44.7432C31.0272 46.4424 30.4401 48.0685 30 49.6699C32.6528 50.6479 43.5087 54.976 49.9268 62.7266C56.4545 54.842 67.5781 50.4894 69.9873 49.6211C69.5595 48.0442 68.9732 46.4183 68.2031 44.7559C62.3598 47.6042 56.394 48.582 51.0029 48.582C41.5411 48.582 33.8881 45.6357 31.8096 44.7432ZM47.7627 23.0928C48.0805 24.3152 48.2636 25.5866 48.2637 26.8945C48.2637 35.2197 41.4912 41.9922 33.166 41.9922H33.1299C32.9221 42.4812 32.7142 42.8974 32.4941 43.3252C32.433 43.423 32.3834 43.5326 32.3223 43.6426C35.5496 44.9995 52.0909 51.2709 67.7021 43.6426C63.069 33.6671 63.3371 25.4888 63.5449 23.0928H47.7627ZM60.2441 35.0488C60.562 34.9999 60.8925 35.2324 60.9414 35.5625C61.2343 37.3807 62.4651 41.1351 62.4697 41.1855C62.5798 41.5034 62.396 41.846 62.0781 41.9561C62.017 41.9805 61.9556 41.9805 61.8945 41.9805C61.6257 41.9803 61.3932 41.8093 61.3076 41.5527C61.2587 41.3938 60.0489 37.6655 59.7432 35.7461H59.7314C59.6826 35.4161 59.9142 35.0979 60.2441 35.0488ZM33.1787 13.0195C25.526 13.0195 19.3029 19.2419 19.3027 26.8945C19.3027 34.5473 25.5259 40.7705 33.1787 40.7705C40.8314 40.7704 47.0537 34.5473 47.0537 26.8945C47.0535 19.2419 40.8313 13.0197 33.1787 13.0195ZM33.2393 21.1494C39.6574 21.345 44.0588 27.3351 44.2422 27.5918C44.401 27.824 44.3889 28.1179 44.2178 28.3379L44.2295 28.3125C40.6966 32.6889 36.9318 34.9022 33.0566 34.9023H32.665C26.2714 34.6578 21.9929 28.5448 21.8096 28.2881C21.6508 28.068 21.6629 27.7625 21.834 27.5547C25.4157 23.1907 29.2786 21.0395 33.2393 21.1494ZM33.1904 22.3721C29.7065 22.2377 26.3083 24.1567 23.0811 27.9707C24.096 29.2668 27.7997 33.509 32.7139 33.6924V33.6797C36.198 33.8142 39.6573 31.8822 42.958 27.9336C41.9184 26.6617 38.141 22.5188 33.1904 22.3721ZM33.0244 23.3252C35.6627 23.3278 37.8114 25.4783 37.8115 28.1172C37.8115 30.7578 35.6601 32.9092 33.0195 32.9092C30.379 32.9092 28.2275 30.7578 28.2275 28.1172C28.2276 27.3348 28.4106 26.5644 28.7773 25.8799C28.9362 25.5746 29.3151 25.4645 29.6084 25.623C29.914 25.782 30.0242 26.1617 29.8652 26.4551C29.5964 26.9562 29.4502 27.5306 29.4502 28.1172C29.4502 30.0854 31.0513 31.6875 33.0195 31.6875C34.9877 31.6875 36.5889 30.0854 36.5889 28.1172C36.5888 26.1491 34.9877 24.5479 33.0195 24.5479C32.6406 24.5479 32.2613 24.6092 31.8945 24.7314C31.5768 24.829 31.235 24.6575 31.125 24.3398C31.0272 24.022 31.1979 23.6794 31.5156 23.5693C32.0023 23.4112 32.5134 23.326 33.0244 23.3252ZM59.5967 30.0371C59.7556 29.976 59.9143 29.976 60.0732 30.0371C60.1464 30.0737 60.2076 30.11 60.2686 30.1709C60.3175 30.2198 60.3666 30.2938 60.4033 30.3672C60.4277 30.4403 60.4521 30.5255 60.4521 30.5986C60.4521 30.6841 60.4277 30.7578 60.4033 30.8311C60.3666 30.9044 60.3175 30.9779 60.2686 31.0391C60.1464 31.1489 60.0001 31.2099 59.8291 31.21C59.6703 31.21 59.5236 31.149 59.4014 31.0391C59.3525 30.9779 59.3033 30.9044 59.2666 30.8311C59.2422 30.7578 59.2178 30.6841 59.2178 30.5986C59.2179 30.5255 59.2422 30.4403 59.2666 30.3672C59.3033 30.2938 59.3525 30.2198 59.4014 30.1709C59.4624 30.11 59.5235 30.0737 59.5967 30.0371ZM33.0322 26.2471C34.0711 26.2473 34.9141 27.0909 34.9141 28.1299C34.9139 29.1687 34.071 30.0125 33.0322 30.0127C31.9932 30.0127 31.1496 29.1689 31.1494 28.1299C31.1494 27.0908 31.9931 26.2471 33.0322 26.2471ZM33.0322 27.4697C32.6655 27.4697 32.3721 27.7631 32.3721 28.1299C32.3722 28.4965 32.6656 28.79 33.0322 28.79C33.3987 28.7898 33.6922 28.4963 33.6924 28.1299C33.6924 27.7633 33.3988 27.47 33.0322 27.4697ZM29.9141 24.4014C30.1707 24.1814 30.5621 24.2054 30.7822 24.4619C30.9778 24.682 30.9905 25.0124 30.8193 25.2324C30.7949 25.269 30.7705 25.3056 30.7461 25.3301C30.6239 25.4523 30.4646 25.5137 30.3057 25.5137H30.293C30.1342 25.5136 29.9874 25.4527 29.8652 25.3428C29.6452 25.135 29.621 24.7923 29.792 24.5479C29.8286 24.4991 29.8654 24.4381 29.9141 24.4014ZM23.9238 19.8164C24.1683 19.5842 24.5597 19.5965 24.792 19.8408L26.1494 21.2588C26.3816 21.5032 26.3693 21.8946 26.125 22.127C26.0029 22.2369 25.8438 22.2977 25.6973 22.2979C25.5384 22.2979 25.3791 22.2373 25.2568 22.1152V22.1025L23.8994 20.6846C23.6673 20.4401 23.6795 20.0486 23.9238 19.8164ZM40.8682 19.6084C41.1005 19.3642 41.4919 19.3518 41.7363 19.584C41.9807 19.8162 41.9927 20.2076 41.7607 20.4521L40.4033 21.8701C40.2811 21.9924 40.1218 22.0537 39.9629 22.0537V22.0664C39.8041 22.0663 39.6573 22.0045 39.5352 21.8945C39.2911 21.6623 39.2789 21.2718 39.5107 21.0273L40.8682 19.6084ZM32.7871 15.7949C33.1294 15.7949 33.3984 16.064 33.3984 16.4062V19.3398C33.3984 19.6821 33.1294 19.9512 32.7871 19.9512C32.4449 19.9511 32.1758 19.6821 32.1758 19.3398V16.4062C32.1758 16.064 32.4449 15.795 32.7871 15.7949Z" fill="#E5CA7A"/>
</svg>