<?xml version="1.0" encoding="utf-8"?>
<svg xmlns="http://www.w3.org/2000/svg" width="100" height="100" viewBox="0 0 100 100" fill="none">
<path d="M40.245 0.960868C49.944 -0.96837 59.9975 0.0213271 69.1337 3.80559C78.27 7.58998 86.0791 13.9991 91.5732 22.2216C97.0672 30.444 99.9999 40.1109 99.9999 49.9999C99.9839 63.2558 94.7111 75.9645 85.3378 85.3378C75.9645 94.7111 63.2558 99.9839 49.9999 99.9999C40.1109 99.9999 30.444 97.0672 22.2216 91.5732C13.9991 86.0791 7.58997 78.27 3.80559 69.1337C0.0213477 59.9975 -0.968373 49.944 0.960859 40.245C2.89018 30.5462 7.65193 21.637 14.6445 14.6445C21.637 7.65194 30.5461 2.89015 40.245 0.960868ZM49.9999 1.20891C40.3502 1.20891 30.917 4.07056 22.8935 9.43157C14.87 14.7927 8.61565 22.4128 4.92277 31.3281C1.22992 40.2434 0.263827 50.054 2.14641 59.5185C4.02901 68.983 8.6764 77.6764 15.4999 84.4999C22.3234 91.3234 31.0169 95.9708 40.4814 97.8534C49.9456 99.736 59.7556 98.7698 68.6708 95.0771C77.5862 91.3842 85.2071 85.13 90.5683 77.1064C95.9293 69.0829 98.7909 59.6497 98.7909 49.9999C98.7781 37.0638 93.6335 24.6609 84.4862 15.5136C75.339 6.36635 62.9361 1.22176 49.9999 1.20891ZM34.3583 16.0458C36.5573 15.609 38.8363 15.8342 40.9071 16.6933C42.9778 17.5523 44.7471 19.0061 45.9911 20.871C46.6605 21.8745 47.1607 22.9733 47.4804 24.123H63.9784C64.0593 24.1276 64.1389 24.1482 64.2118 24.1835C64.2848 24.2189 64.3503 24.2684 64.4042 24.329C64.458 24.3896 64.4988 24.4605 64.5253 24.537C64.5518 24.6137 64.5634 24.6953 64.5585 24.7763C64.0023 35.0665 67.1699 42.0076 69.4794 47.0741C70.1914 48.5237 70.7983 50.0225 71.2939 51.5595C72.3634 56.2794 72.1162 61.2026 70.58 65.7919C69.1753 70.5871 66.9229 75.0918 63.9296 79.0927C63.8714 79.1649 63.7975 79.2238 63.7138 79.2636C63.6302 79.3032 63.5387 79.3237 63.4462 79.3232H36.0937C35.9994 79.3237 35.9058 79.3033 35.8202 79.2636C35.7346 79.2239 35.6591 79.1651 35.5986 79.0927C32.5548 75.1038 30.256 70.5979 28.8144 65.7919C27.2986 61.1943 27.1017 56.2634 28.246 51.5595C28.7567 50.0383 29.3756 48.5555 30.0966 47.122C31.5036 44.2107 32.6596 41.1857 33.5605 38.081C32.3998 37.7617 31.2905 37.2591 30.2782 36.5839C28.4133 35.3399 26.9595 33.5706 26.1005 31.4999C25.2415 29.4292 25.0163 27.15 25.453 24.9511C25.8898 22.7522 26.9684 20.7317 28.5536 19.1464C30.1389 17.5611 32.1594 16.4826 34.3583 16.0458ZM29.0683 53.1806C28.4572 57.014 28.6926 60.9351 29.7577 64.6679C31.0448 69.4287 33.233 73.8988 36.203 77.8359L36.3964 78.0898H49.1054L49.1171 65.5019L48.8749 65.3202C47.7988 64.5102 46.7347 63.6755 45.6103 62.7929C40.6043 58.8873 35.4165 54.8367 29.8905 52.7206L29.2138 52.455L29.0683 53.1806ZM69.6611 52.7324C64.1351 54.8484 58.9474 58.8872 53.9413 62.7929L50.6288 65.3202L50.3749 65.5019V78.0898H63.1073L63.289 77.8359C65.8666 74.2788 67.8472 70.325 69.1532 66.1308H69.2021C70.6676 61.9849 71.1115 57.5463 70.496 53.1923L70.3622 52.4667L69.6611 52.7324ZM66.9286 46.0458C61.5436 48.5548 55.6741 49.8554 49.7333 49.8554C43.7926 49.8553 37.9239 48.5548 32.539 46.0458L31.9833 45.7919L31.7284 46.3359L31.2812 47.2548C30.7119 48.3795 30.2035 49.5346 29.7577 50.7138L29.5282 51.2822L30.0966 51.4872C35.8765 53.6638 41.487 58.0411 46.4325 61.8984L49.3466 64.1474L49.7099 64.4374L50.1083 64.1474C51.0515 63.434 51.9953 62.6961 52.9989 61.9101C57.9565 58.0529 63.5669 53.6754 69.3466 51.499L69.915 51.2822L69.7099 50.7138C69.2642 49.5346 68.7557 48.3795 68.1864 47.2548L67.7509 46.3359L67.4843 45.7919L66.9286 46.0458ZM47.746 25.3329C47.8448 25.9379 47.8961 26.5525 47.8954 27.1708C47.8921 30.1714 46.6988 33.0481 44.5771 35.1699C42.4553 37.2916 39.5787 38.4849 36.578 38.4882C35.962 38.4889 35.3498 38.4378 34.747 38.3398C34.2869 40.062 33.7237 41.7553 33.0595 43.4101C32.9628 43.6519 32.8656 43.8938 32.7568 44.1357L32.539 44.6796L33.0712 44.9335C38.3035 47.3762 44.0078 48.6425 49.7821 48.6425C55.5566 48.6425 61.2608 47.3762 66.4931 44.9335L67.0253 44.6796L66.7958 44.1474C66.687 43.8693 66.5777 43.6398 66.4931 43.4101C64.2637 37.8682 63.1741 31.9333 63.289 25.9609V25.3329H47.746ZM60.0478 36.3359C60.1636 36.3362 60.2776 36.3697 60.3749 36.4325C60.5235 36.513 60.636 36.6472 60.6894 36.8075C61.0555 38.498 61.5068 40.1689 62.0429 41.8134C62.0926 41.9736 62.077 42.1474 61.9989 42.2958C61.9207 42.4444 61.7862 42.5557 61.6259 42.6054C61.4656 42.6551 61.292 42.6397 61.1435 42.5615C60.995 42.4832 60.8836 42.3487 60.8339 42.1884C60.2802 40.5095 59.8159 38.8023 59.4433 37.0741C59.4255 36.9947 59.4243 36.9121 59.4384 36.832C59.4525 36.7519 59.4815 36.6749 59.5253 36.6064C59.5691 36.5379 59.6265 36.479 59.6933 36.4325C59.7601 36.3861 59.8355 36.3531 59.915 36.3359H60.0478ZM36.578 17.0497C34.5758 17.0473 32.6171 17.6383 30.9511 18.749C29.2852 19.8596 27.9865 21.4399 27.2187 23.289C26.4508 25.1381 26.2485 27.1736 26.6376 29.1376C27.0268 31.1017 27.9903 32.9065 29.4052 34.3232C30.8201 35.7396 32.6234 36.7042 34.5868 37.0956C36.5504 37.4871 38.5864 37.2881 40.4364 36.5224C42.2864 35.7567 43.8678 34.4594 44.9804 32.7949C46.093 31.1303 46.6864 29.1729 46.6864 27.1708C46.6833 24.4897 45.6173 21.9184 43.7226 20.0214C41.8279 18.1247 39.2589 17.0562 36.578 17.0497ZM59.5888 31.4511C59.9292 31.4512 60.2048 31.7269 60.205 32.0673C60.205 32.4079 59.9293 32.6844 59.5888 32.6845C59.2482 32.6845 58.9716 32.4079 58.9716 32.0673C58.9718 31.7269 59.2483 31.4511 59.5888 31.4511ZM42.37 22.7773C42.5281 22.7773 42.68 22.8395 42.7929 22.9501C42.8496 23.0063 42.895 23.0737 42.9257 23.1474C42.9563 23.221 42.9716 23.3001 42.9716 23.3798C42.9716 23.4595 42.9564 23.5386 42.9257 23.6122C42.895 23.6859 42.8495 23.7523 42.7929 23.8085L34.8603 31.7411L30.8466 27.7265C30.7328 27.6127 30.669 27.4587 30.6689 27.2978C30.6689 27.1368 30.7328 26.9819 30.8466 26.8681C30.9604 26.7544 31.1145 26.6904 31.2753 26.6904C31.4363 26.6904 31.5912 26.7542 31.705 26.8681L34.8603 30.0361L41.9462 22.9501C42.0592 22.8393 42.2118 22.7773 42.37 22.7773Z" fill="#E5CA7A"/>
</svg>