<?xml version="1.0" encoding="utf-8"?>
<svg xmlns="http://www.w3.org/2000/svg" width="100" height="100" viewBox="0 0 100 100" fill="none">
<path d="M40.245 0.960853C49.9439 -0.968378 59.9975 0.0213641 69.1337 3.80558C78.27 7.58996 86.0791 13.9992 91.5732 22.2216C97.0672 30.444 99.9999 40.1109 99.9999 49.9999C99.9839 63.2558 94.7111 75.9644 85.3378 85.3378C75.9644 94.7112 63.2559 99.9839 49.9999 99.9999C40.111 99.9999 30.444 97.0681 22.2216 91.5741C13.9992 86.0801 7.58999 78.2709 3.80558 69.1347C0.0212344 59.9985 -0.968315 49.945 0.960857 40.246C2.89012 30.5469 7.6518 21.6371 14.6445 14.6444C21.637 7.65193 30.5461 2.89016 40.245 0.960853ZM52.4872 47.3495L57.9687 52.8417C58.4136 53.2573 58.7352 53.7881 58.8974 54.3749C59.0595 54.9617 59.0559 55.5819 58.8876 56.1669C58.8012 56.4036 58.7911 56.6614 58.8583 56.9042C58.9255 57.147 59.0669 57.3629 59.2626 57.5214L68.0165 66.2519L76.0702 74.2929C76.5956 74.7732 77.0083 75.3641 77.2792 76.0224V76.7109L77.0253 77.1464C76.8663 77.4623 76.6489 77.7452 76.3847 77.9804C71.4512 81.3178 65.9006 80.4476 61.8739 75.7196C60.18 73.6561 59.3179 71.0343 59.456 68.3681C59.4898 67.4926 59.3378 66.6193 59.0107 65.8066C58.6835 64.9941 58.1883 64.26 57.5575 63.6523C57.0145 63.1265 56.4364 62.637 55.828 62.1884L55.1025 61.6327C54.8881 61.4551 54.6191 61.3567 54.3407 61.3544C54.1417 61.3598 53.9453 61.4009 53.7607 61.4755C53.1472 61.7249 52.4724 61.7837 51.8251 61.6435C51.1779 61.5032 50.588 61.1704 50.1327 60.6894L44.6493 55.1874L15.4189 84.4179C15.446 84.4452 15.4727 84.4737 15.4999 84.5009C22.3234 91.3242 31.017 95.9709 40.4814 97.8534C49.9459 99.736 59.7564 98.7699 68.6718 95.0771C77.587 91.3842 85.2071 85.1308 90.5683 77.1073C95.9295 69.0837 98.7909 59.6499 98.7909 49.9999C98.7781 37.0637 93.6335 24.6609 84.4862 15.5136C84.4591 15.4864 84.4315 15.4596 84.4042 15.4325L52.4872 47.3495ZM49.9999 1.2089C40.3501 1.2089 30.917 4.07051 22.8935 9.43156C14.8698 14.7928 8.61565 22.4136 4.92277 31.329C1.23007 40.2442 0.263897 50.0542 2.1464 59.5185C3.94278 68.5494 8.25755 76.8775 14.5771 83.5497L43.7958 54.331L31.995 42.4911L22.5146 32.9989C21.7912 32.303 21.2716 31.4225 21.0116 30.453C20.7517 29.4835 20.7618 28.4614 21.04 27.497C21.2147 26.5871 21.6506 25.7477 22.2948 25.0819C22.939 24.4163 23.7635 23.9534 24.6669 23.7489C25.6376 23.4331 26.6776 23.3941 27.6689 23.6376C28.6602 23.8812 29.5644 24.3971 30.2782 25.1269L44.2929 39.1415L51.6327 46.4941L83.5361 14.5907C74.4895 6.02167 62.494 1.22127 49.9999 1.2089ZM55.6952 60.1571L56.5663 60.8222C56.8745 61.0307 57.1824 61.2599 57.4804 61.4989L58.0702 61.9833C59.5179 63.2267 60.496 64.9342 60.8339 66.8202C60.9079 67.3652 60.9448 67.9148 60.9433 68.4648C60.9554 68.912 61.0155 69.3593 61.0155 69.8066C61.3146 72.1162 62.4136 74.2481 64.121 75.8319C65.8286 77.4158 68.0375 78.3516 70.3632 78.4765H70.6171C72.389 78.3815 74.0952 77.7726 75.5263 76.7235L75.9736 76.4091L57.6425 58.1142L55.6952 60.1571ZM45.705 54.1318L51.2089 59.6493C51.353 59.8037 51.5069 59.9493 51.6689 60.0849C51.9321 60.3009 52.2592 60.4242 52.5995 60.4355C52.7763 60.4337 52.9512 60.3967 53.1132 60.3261C53.2752 60.2555 53.4213 60.1526 53.5429 60.0243C54.8166 58.7506 56.0703 57.4767 57.3036 56.203C57.5457 55.9676 57.6886 55.6479 57.7021 55.3105C57.7155 54.9731 57.5984 54.6435 57.3759 54.3896C57.2269 54.194 57.0607 54.0121 56.8798 53.8456L51.4306 48.4062L45.705 54.1318ZM25.9736 24.873C25.2286 24.9417 24.5156 25.2106 23.9111 25.6513C23.3066 26.0919 22.8324 26.6878 22.539 27.3759C22.2088 28.0354 22.0876 28.7805 22.1913 29.5107C22.2951 30.2405 22.6186 30.9215 23.1191 31.4628C23.2826 31.6608 23.4607 31.8472 23.6513 32.0194L44.8515 53.2753L50.5751 47.5517L29.2861 26.2997C28.867 25.8404 28.3551 25.4754 27.7841 25.2294C27.2129 24.9834 26.5954 24.8618 25.9736 24.873Z" fill="#E5CA7A"/>
</svg>