<?xml version="1.0" encoding="utf-8"?>
<svg xmlns="http://www.w3.org/2000/svg" width="100" height="100" viewBox="0 0 100 100" fill="none">
<path d="M50 0C77.5672 0 100 22.4328 100 50C100 77.5672 77.5672 100 50 100C22.4328 100 0 77.5672 0 50C9.99166e-07 22.4328 22.4328 9.99038e-07 50 0ZM50 1.22266C23.1051 1.22266 1.22266 23.1051 1.22266 50C1.22266 76.8949 23.1051 98.7773 50 98.7773C76.8949 98.7773 98.7773 76.8949 98.7773 50C98.7773 23.1051 76.8949 1.22266 50 1.22266ZM33.166 11.7969C39.7307 11.7969 45.3055 16.0145 47.3838 21.8701H64.2295C64.4128 21.8701 64.5721 21.9437 64.6943 22.0781C64.8166 22.2126 64.8653 22.3962 64.8408 22.5674H64.8291C64.8159 22.6722 63.5111 32.107 69.0469 43.6797C74.8414 55.819 72.0047 65.0492 64.7432 77.8242C64.6453 78.0074 64.4377 78.1298 64.2178 78.1299H35.7578C35.5379 78.1298 35.3425 78.0196 35.2324 77.8242C29.2911 67.3719 26.3077 59.3031 28.5938 50.0732C28.5816 50.0001 28.5938 49.9267 28.6182 49.8535C28.6426 49.8046 28.6679 49.7681 28.6924 49.7314C29.2058 47.7755 29.9263 45.7701 30.9287 43.6797C31.0876 43.3253 31.2469 43.0321 31.3936 42.751C31.5403 42.482 31.6751 42.2001 31.8096 41.9189C24.1201 41.2343 18.0684 34.7674 18.0684 26.8945C18.0685 18.5696 24.8411 11.797 33.166 11.7969ZM29.6943 50.8682C27.7751 59.45 30.5749 67.1029 36.125 76.9072H49.3398V63.9482C43.3496 56.369 32.4939 51.9195 29.6943 50.8682ZM70.3057 50.8193C67.7506 51.7607 56.6867 56.1978 50.5742 63.875V76.9072H63.8877C69.4378 67.0907 72.2493 59.4256 70.3057 50.8193ZM31.8096 44.7432C31.0272 46.4424 30.4401 48.0685 30 49.6699C32.6528 50.6479 43.5087 54.976 49.9268 62.7266C56.4545 54.842 67.5781 50.4894 69.9873 49.6211C69.5595 48.0442 68.9732 46.4183 68.2031 44.7559C62.3598 47.6042 56.394 48.582 51.0029 48.582C41.5411 48.582 33.8881 45.6357 31.8096 44.7432ZM47.7627 23.0928C48.0805 24.3152 48.2636 25.5866 48.2637 26.8945C48.2637 35.2197 41.4912 41.9922 33.166 41.9922V41.9805H33.1299C32.9221 42.4693 32.7141 42.8848 32.4941 43.3125C32.433 43.4225 32.3834 43.5326 32.3223 43.6426C35.5496 45.0118 52.0909 51.2709 67.7021 43.6426C63.069 33.6671 63.3371 25.4888 63.5449 23.0928H47.7627ZM60.2441 35.0488C60.562 34.9999 60.8925 35.2324 60.9414 35.5625C61.2343 37.3807 62.4651 41.1351 62.4697 41.1855C62.5798 41.5034 62.396 41.846 62.0781 41.9561C62.017 41.9805 61.9556 41.9805 61.8945 41.9805C61.6257 41.9803 61.3932 41.8093 61.3076 41.5527C61.2587 41.3938 60.0489 37.6655 59.7432 35.7461H59.7314C59.6826 35.4161 59.9142 35.0979 60.2441 35.0488ZM33.1787 13.0195C25.526 13.0195 19.3029 19.2419 19.3027 26.8945C19.3027 34.5473 25.5259 40.7705 33.1787 40.7705C40.8314 40.7704 47.0537 34.5473 47.0537 26.8945C47.0535 19.2419 40.8313 13.0197 33.1787 13.0195ZM32.751 18.252C32.9343 18.0931 33.1911 18.0565 33.4111 18.1543C33.631 18.2522 33.7773 18.4725 33.7773 18.7168V34.2178H35.3174C35.6597 34.2178 35.9287 34.4868 35.9287 34.8291H35.917C35.9169 35.1713 35.6479 35.4404 35.3057 35.4404H30.7705C30.4283 35.4404 30.1593 35.1713 30.1592 34.8291C30.1592 34.4868 30.4282 34.2178 30.7705 34.2178H32.543V20.0859L30.3428 22.0537C30.0861 22.2737 29.6947 22.2615 29.4746 22.0049C29.2546 21.7482 29.2667 21.3568 29.5234 21.1367L32.751 18.252ZM59.4014 30.1709C59.6336 29.9513 60.0485 29.9513 60.2686 30.1709C60.3786 30.2931 60.4521 30.4524 60.4521 30.6113C60.4521 30.7702 60.3786 30.9291 60.2686 31.0391C60.2075 31.1001 60.1465 31.1494 60.0732 31.1738C59.9878 31.2226 59.9145 31.2227 59.8291 31.2227C59.6825 31.2227 59.5236 31.1612 59.4014 31.0391C59.2914 30.9291 59.2295 30.7702 59.2295 30.6113C59.2295 30.4524 59.2913 30.2931 59.4014 30.1709Z" fill="#E5CA7A"/>
</svg>